<svg width="33" height="70" viewBox="0 0 33 70" fill="none" xmlns="http://www.w3.org/2000/svg">
<path d="M25.4999 5.83333H21.75C21.3521 5.83333 20.9706 5.67969 20.6893 5.4062C20.408 5.13271 20.25 4.76177 20.25 4.375V3.64583C20.25 2.6789 19.8549 1.75157 19.1516 1.06784C18.4484 0.384113 17.4946 0 16.5 0C15.5054 0 14.5516 0.384113 13.8484 1.06784C13.1451 1.75157 12.75 2.6789 12.75 3.64583V4.375C12.75 4.76177 12.592 5.13271 12.3107 5.4062C12.0294 5.67969 11.6479 5.83333 11.25 5.83333H7.50007C5.51096 5.83333 3.60332 6.60156 2.19681 7.96901C0.790295 9.33647 0.000124936 11.1911 0.000124936 13.125V16.0417C0.000124936 16.4284 0.158159 16.7994 0.439462 17.0729C0.720764 17.3464 1.10229 17.5 1.50011 17.5H31.4999C31.8977 17.5 32.2792 17.3464 32.5605 17.0729C32.8418 16.7994 32.9999 16.4284 32.9999 16.0417V13.125C32.9999 11.1911 32.2097 9.33647 30.8032 7.96901C29.3967 6.60156 27.489 5.83333 25.4999 5.83333ZM31.4999 21.875H1.50011C1.10229 21.875 0.720764 22.0286 0.439462 22.3021C0.158159 22.5756 0.000124936 22.9466 0.000124936 23.3333V26.5417C0.0312265 27.6327 0.480628 28.6729 1.26012 29.4583L5.70008 34.0667C5.97305 34.3343 6.1262 34.696 6.1262 35.0729C6.1262 35.4498 5.97305 35.8115 5.70008 36.0792L1.29011 40.425C0.877123 40.8269 0.550409 41.3046 0.328956 41.8304C0.107502 42.3561 -0.00427343 42.9194 0.000124936 43.4875V62.7083C0.000124936 63.6659 0.194116 64.6141 0.571023 65.4987C0.947931 66.3834 1.50037 67.1872 2.19681 67.8643C2.89324 68.5414 3.72003 69.0785 4.62996 69.445C5.5399 69.8114 6.51516 70 7.50007 70H25.4999C26.4848 70 27.4601 69.8114 28.37 69.445C29.28 69.0785 30.1068 68.5414 30.8032 67.8643C31.4996 67.1872 32.0521 66.3834 32.429 65.4987C32.8059 64.6141 32.9999 63.6659 32.9999 62.7083V43.5167C32.989 42.3444 32.5041 41.2233 31.6499 40.3958L27.2099 36.1667C26.9215 35.8986 26.7498 35.5333 26.7299 35.1458C26.7275 34.9546 26.7663 34.7649 26.8438 34.5891C26.9213 34.4133 27.0358 34.2552 27.1799 34.125L31.7099 29.575C32.1229 29.1731 32.4496 28.6954 32.671 28.1696C32.8925 27.6439 33.0043 27.0806 32.9999 26.5125V23.3333C32.9999 22.9466 32.8418 22.5756 32.5605 22.3021C32.2792 22.0286 31.8977 21.875 31.4999 21.875ZM23.6699 49.5833L15.33 59.0333C15.2308 59.1462 15.0985 59.2269 14.9508 59.2646C14.8032 59.3024 14.6472 59.2955 14.5037 59.2447C14.3602 59.194 14.236 59.1019 14.1478 58.9807C14.0596 58.8596 14.0115 58.7151 14.01 58.5667V52.2667C14.01 51.8799 13.852 51.509 13.5707 51.2355C13.2894 50.962 12.9079 50.8083 12.51 50.8083H9.90005C9.75367 50.8088 9.61035 50.7677 9.48774 50.6899C9.36513 50.6122 9.2686 50.5013 9.21005 50.3708C9.13896 50.2511 9.10154 50.1153 9.10154 49.9771C9.10154 49.8389 9.13896 49.703 9.21005 49.5833L17.55 40.1333C17.6492 40.0205 17.7815 39.9398 17.9292 39.902C18.0768 39.8643 18.2328 39.8712 18.3763 39.9219C18.5198 39.9727 18.644 40.0648 18.7322 40.1859C18.8204 40.3071 18.8685 40.4516 18.87 40.6V46.9C18.87 47.2868 19.028 47.6577 19.3093 47.9312C19.5906 48.2047 19.9721 48.3583 20.37 48.3583H22.9799C23.1263 48.3578 23.2697 48.399 23.3923 48.4767C23.5149 48.5545 23.6114 48.6654 23.6699 48.7958C23.741 48.9156 23.7785 49.0513 23.7785 49.1896C23.7785 49.3278 23.741 49.4636 23.6699 49.5833Z" fill="#F65E1C"/>
</svg>
