<svg width="16" height="16" viewBox="0 0 16 16" fill="none" xmlns="http://www.w3.org/2000/svg">
<path d="M4.725 12.6L7.875 10.1981L11.025 12.6L9.84375 8.70188L12.9937 6.4575H9.135L7.875 2.3625L6.615 6.4575H2.75625L5.90625 8.70188L4.725 12.6V12.6M7.875 15.75C6.78562 15.75 5.76187 15.5433 4.80375 15.1298C3.84562 14.7164 3.01219 14.1553 2.30344 13.4466C1.59469 12.7378 1.03359 11.9044 0.620156 10.9462C0.206719 9.98812 0 8.96437 0 7.875C0 6.78562 0.206719 5.76187 0.620156 4.80375C1.03359 3.84562 1.59469 3.01219 2.30344 2.30344C3.01219 1.59469 3.84562 1.03359 4.80375 0.620156C5.76187 0.206719 6.78562 0 7.875 0C8.96437 0 9.98812 0.206719 10.9462 0.620156C11.9044 1.03359 12.7378 1.59469 13.4466 2.30344C14.1553 3.01219 14.7164 3.84562 15.1298 4.80375C15.5433 5.76187 15.75 6.78562 15.75 7.875C15.75 8.96437 15.5433 9.98812 15.1298 10.9462C14.7164 11.9044 14.1553 12.7378 13.4466 13.4466C12.7378 14.1553 11.9044 14.7164 10.9462 15.1298C9.98812 15.5433 8.96437 15.75 7.875 15.75V15.75" fill="#F65E1C"/>
</svg>
